<svg width="54" height="54" viewBox="0 0 54 54" fill="none" xmlns="http://www.w3.org/2000/svg">
<g filter="url(#filter0_b_2509_2609)">
<circle cx="27" cy="27" r="27" fill="white" fill-opacity="0.19"/>
<circle cx="27" cy="27" r="26" stroke="#FFB1F7" stroke-width="2"/>
</g>
<path d="M33.7662 22.2377C33.3753 21.8453 32.9111 21.534 32.4002 21.3217C31.8893 21.1093 31.3417 21 30.7887 21C30.2357 21 29.6881 21.1093 29.1772 21.3217C28.6663 21.534 28.2021 21.8453 27.8112 22.2377L26.9998 23.0517L26.1884 22.2377C25.3987 21.4455 24.3277 21.0004 23.2109 21.0004C22.0941 21.0004 21.023 21.4455 20.2333 22.2377C19.4436 23.0299 19 24.1044 19 25.2248C19 26.3452 19.4436 27.4196 20.2333 28.2119L21.0447 29.0258L26.9998 35L32.9549 29.0258L33.7662 28.2119C34.1574 27.8197 34.4677 27.354 34.6793 26.8415C34.891 26.3289 35 25.7796 35 25.2248C35 24.67 34.891 24.1206 34.6793 23.6081C34.4677 23.0956 34.1574 22.6299 33.7662 22.2377Z" fill="white"/>
<path d="M33.7662 22.2377L33.0578 22.9435L33.0582 22.9438L33.7662 22.2377ZM30.7887 21V22V21ZM27.8112 22.2377L28.5194 22.9437L28.5196 22.9435L27.8112 22.2377ZM26.9998 23.0517L26.2916 23.7576L26.9998 24.4681L27.708 23.7576L26.9998 23.0517ZM26.1884 22.2377L25.4802 22.9437V22.9437L26.1884 22.2377ZM20.2333 28.2119L20.9416 27.5059H20.9416L20.2333 28.2119ZM21.0447 29.0258L20.3365 29.7318H20.3365L21.0447 29.0258ZM26.9998 35L26.2916 35.706L26.9998 36.4165L27.708 35.706L26.9998 35ZM32.9549 29.0258L33.6631 29.7318H33.6631L32.9549 29.0258ZM33.7662 28.2119L33.0582 27.5057L33.058 27.5059L33.7662 28.2119ZM34.4747 21.5319C33.991 21.0464 33.4165 20.6612 32.7841 20.3983L32.0164 22.2451C32.4057 22.4069 32.7596 22.6442 33.0578 22.9435L34.4747 21.5319ZM32.7841 20.3983C32.1516 20.1354 31.4735 20 30.7887 20V22C31.2099 22 31.6271 22.0833 32.0164 22.2451L32.7841 20.3983ZM30.7887 20C30.1039 20 29.4258 20.1354 28.7934 20.3983L29.561 22.2451C29.9503 22.0833 30.3675 22 30.7887 22V20ZM28.7934 20.3983C28.1609 20.6612 27.5864 21.0464 27.1028 21.5319L28.5196 22.9435C28.8178 22.6442 29.1717 22.4069 29.561 22.2451L28.7934 20.3983ZM27.1029 21.5317L26.2916 22.3457L27.708 23.7576L28.5194 22.9437L27.1029 21.5317ZM27.708 22.3457L26.8967 21.5317L25.4802 22.9437L26.2916 23.7576L27.708 22.3457ZM26.8967 21.5317C25.9197 20.5516 24.5939 20.0004 23.2109 20.0004V22.0004C24.0614 22.0004 24.8778 22.3393 25.4802 22.9437L26.8967 21.5317ZM23.2109 20.0004C21.8278 20.0004 20.5021 20.5516 19.5251 21.5317L20.9416 22.9437C21.544 22.3393 22.3603 22.0004 23.2109 22.0004V20.0004ZM19.5251 21.5317C18.5482 22.5117 18 23.8402 18 25.2248H20C20 24.3686 20.3391 23.5481 20.9416 22.9437L19.5251 21.5317ZM18 25.2248C18 26.6093 18.5482 27.9378 19.5251 28.9178L20.9416 27.5059C20.3391 26.9015 20 26.081 20 25.2248H18ZM19.5251 28.9178L20.3365 29.7318L21.7529 28.3199L20.9416 27.5059L19.5251 28.9178ZM20.3365 29.7318L26.2916 35.706L27.708 34.294L21.7529 28.3199L20.3365 29.7318ZM27.708 35.706L33.6631 29.7318L32.2467 28.3199L26.2916 34.294L27.708 35.706ZM33.6631 29.7318L34.4745 28.9178L33.058 27.5059L32.2467 28.3199L33.6631 29.7318ZM34.4743 28.918C34.9582 28.4328 35.3419 27.8569 35.6036 27.2232L33.7551 26.4597C33.5934 26.8511 33.3566 27.2065 33.0582 27.5057L34.4743 28.918ZM35.6036 27.2232C35.8653 26.5896 36 25.9105 36 25.2248H34C34 25.6487 33.9167 26.0683 33.7551 26.4597L35.6036 27.2232ZM36 25.2248C36 24.5391 35.8653 23.86 35.6036 23.2264L33.7551 23.9899C33.9167 24.3813 34 24.8009 34 25.2248H36ZM35.6036 23.2264C35.3419 22.5927 34.9582 22.0168 34.4743 21.5316L33.0582 22.9438C33.3566 23.243 33.5934 23.5984 33.7551 23.9899L35.6036 23.2264Z" fill="#FFB1F7"/>
<defs>
<filter id="filter0_b_2509_2609" x="-30.2703" y="-30.2703" width="114.541" height="114.541" filterUnits="userSpaceOnUse" color-interpolation-filters="sRGB">
<feFlood flood-opacity="0" result="BackgroundImageFix"/>
<feGaussianBlur in="BackgroundImageFix" stdDeviation="15.1352"/>
<feComposite in2="SourceAlpha" operator="in" result="effect1_backgroundBlur_2509_2609"/>
<feBlend mode="normal" in="SourceGraphic" in2="effect1_backgroundBlur_2509_2609" result="shape"/>
</filter>
</defs>
</svg>
